<?xml version="1.0" encoding="utf-8"?>
<!-- Generator: Adobe Illustrator 19.0.0, SVG Export Plug-In . SVG Version: 6.00 Build 0)  -->
<svg version="1.1" id="レイヤー_1" xmlns="http://www.w3.org/2000/svg" xmlns:xlink="http://www.w3.org/1999/xlink" x="0px"
	 y="0px" viewBox="0 0 77.6 79.7" style="enable-background:new 0 0 77.6 79.7;" xml:space="preserve">
<style type="text/css">
	.st0{fill:#008B00;}
	.st1{fill:#FFFFFF;}
</style>
<g>
	<path class="st0" d="M74.7,17c0,1,0,2,0,3C68.9,21,63.1,22.6,57.3,23c-5.9,0.5-7.5,2.4-5.5,8.2c1,2.8,2.4,5.7,2.5,8.6
		c0.5,14.7-4.7,31.2-22.8,36c-0.9,0.3-1.8,0.8-2.7,1.2c-4.3,0-8.7,0-13,0c-5.5-2.5-9.5-6.5-12-12c0-4.3,0-8.7,0-13
		c2.2-5.3,4.5-10.7,6.7-16c5.2-13,13.5-17.4,27.2-14.5c2.8,0.6,5.5,1.7,8.3,2.5c0.3-0.3,0.6-0.7,0.8-1c-1.2-1.3-2.1-3.1-3.6-3.8
		c-2.7-1.3-5.6-2.1-8.5-2.6c-8.1-1.5-9.7-4.4-5.9-11.5c2.3-4.1,6.2-5.6,10,0c3.8,4,7.7,8,11.8,12.2c0.3-0.2,1-0.5,1.7-1
		C62.6,8.9,65.3,9,74.7,17z M31.7,64.8c1.1,3.4,3,4.9,7.2,4.1c4.6-0.9,5.3-3.7,5.9-7.3c0.8-5.1,1.9-10.1,2.9-15.2
		c0.5-2.6,1-5.1-2.9-5.4c-3.3-0.3-6.4-0.7-6.9,4c-0.4,3.9-1.4,7.7-2,11.2c-2.5-2.3-4.7-5.9-6.8-5.8c-2.5,0.1-4.8,3.5-7.4,5.7
		c-0.3-3.7-0.4-7.7-0.8-11.6c-0.5-4.8-4.3-3-7-3.1c-2.9-0.1-3.8,1.4-3.2,4.1c1,4.9,1.8,9.8,2.7,14.7c1.7,9,1.9,9.3,10.9,8.1
		C26.6,68,28.8,66.3,31.7,64.8z M27,28.4c0.1,0.6,0.1,1.2,0.2,1.8c-2.2,0.6-4.5,0.9-6.5,1.8c-1.5,0.7-2.5,2.3-3.7,3.5
		c1.4,1.2,2.7,3.3,4.2,3.5c3.3,0.3,6.7-0.3,10.4-0.6c-0.4-4.8,1.8-10-4-12.1c-3.1-1.1-6.4-0.8-9.9,2.6C21.8,28.7,24.4,28.6,27,28.4z
		 M41.4,25.4c-0.5,0-1,0-1.6,0c0,4.3,0,8.6,0,12.9c0.5,0,1,0,1.6,0C41.4,33.9,41.4,29.6,41.4,25.4z M36.8,25.4c-0.6,0-1.3,0-1.9,0
		c-1.1,4.3-1.2,8.6,0.3,12.7c0.5,0,1.1,0,1.6,0C36.8,33.9,36.8,29.6,36.8,25.4z"/>
	<path class="st1" d="M28.7,77c0.9-0.4,1.8-0.9,2.7-1.2c18.1-4.8,23.3-21.3,22.8-36c-0.1-2.9-1.5-5.8-2.5-8.6
		c-2-5.8-0.4-7.7,5.5-8.2c5.9-0.5,11.6-2,17.4-3.1c0,19,0,38,0,57C59.4,77,44,77,28.7,77z"/>
	<path class="st1" d="M28.7,5c-3.8,7.1-2.2,10,5.9,11.5c2.9,0.5,5.8,1.4,8.5,2.6c1.5,0.7,2.4,2.5,3.6,3.8c-0.3,0.3-0.6,0.7-0.8,1
		c-2.8-0.8-5.5-1.9-8.3-2.5C23.8,18.5,15.6,23,10.4,35.9c-2.2,5.4-4.4,10.7-6.7,16c0-15.6,0-31.1,0-47C12,5,20.4,5,28.7,5z"/>
	<path class="st1" d="M74.7,17c-9.4-8-12.1-8-22.6-0.8c-0.7,0.5-1.4,0.8-1.7,1C46.4,12.9,42.6,9,38.7,5c12,0,24,0,36,0
		C74.7,9,74.7,13,74.7,17z"/>
	<path class="st1" d="M3.7,65c2.5,5.5,6.5,9.5,12,12c-4,0-8,0-12,0C3.7,73,3.7,69,3.7,65z"/>
	<path class="st1" d="M31.7,64.8c-2.9,1.4-5.1,3.2-7.5,3.5c-9.1,1.2-9.3,0.9-10.9-8.1c-0.9-4.9-1.7-9.8-2.7-14.7
		c-0.5-2.7,0.4-4.3,3.2-4.1c2.7,0.1,6.5-1.7,7,3.1c0.4,3.9,0.6,7.9,0.8,11.6c2.6-2.2,4.9-5.6,7.4-5.7c2.1-0.1,4.3,3.6,6.8,5.8
		c0.7-3.5,1.6-7.3,2-11.2c0.5-4.7,3.6-4.3,6.9-4c3.9,0.4,3.4,2.9,2.9,5.4c-1,5.1-2,10.1-2.9,15.2c-0.6,3.6-1.3,6.4-5.9,7.3
		C34.7,69.7,32.8,68.2,31.7,64.8z"/>
	<path class="st1" d="M27,28.4c-2.6,0.1-5.3,0.3-9.3,0.5c3.5-3.4,6.8-3.7,9.9-2.6c5.8,2.1,3.6,7.3,4,12.1c-3.6,0.3-7,0.9-10.4,0.6
		c-1.5-0.1-2.8-2.3-4.2-3.5c1.2-1.2,2.2-2.8,3.7-3.5c2-1,4.3-1.3,6.5-1.8C27.2,29.6,27.1,29,27,28.4z M28.1,35.7
		c-0.2-0.9-0.4-1.8-0.6-2.7c-2.3,0.5-4.5,1.1-6.8,1.6c0.2,0.8,0.4,1.6,0.5,2.5C23.5,36.6,25.8,36.1,28.1,35.7z"/>
	<path class="st1" d="M41.4,25.4c0,4.3,0,8.6,0,12.9c-0.5,0-1,0-1.6,0c0-4.3,0-8.6,0-12.9C40.4,25.4,40.9,25.4,41.4,25.4z"/>
	<path class="st1" d="M36.8,25.4c0,4.2,0,8.5,0,12.7c-0.5,0-1.1,0-1.6,0c-1.6-4.2-1.4-8.4-0.3-12.7C35.6,25.4,36.2,25.4,36.8,25.4z"
		/>
	<path class="st0" d="M28.1,35.7c-2.3,0.4-4.6,0.9-6.9,1.3c-0.2-0.8-0.4-1.6-0.5-2.5c2.3-0.5,4.5-1.1,6.8-1.6
		C27.6,33.9,27.9,34.8,28.1,35.7z"/>
</g>
</svg>
